<svg xmlns="http://www.w3.org/2000/svg" viewBox="0 0 261.88 82.67" fill="#fff"><path d="M172.33 20.67c2.2 2.5 6.9 2.4 9.8 4.2-3.8 1-8.6 1-12.1 2.3.8-2.2 1.6-4.4 2.3-6.5zM145.33 29.27c-1.1 5.2-3.5 11.2-4.9 17 7.4.1 15.2-1.4 22.8-1.9a19.5 19.5 0 0 0 2.1-5.1c1.5 2.2 2.6 6.2 1.2 9.3-11.6-.2-19.9 9.3-31.2 9.3-5.1 0-9.4-2.9-7-8.6 3.4-8 11.8-13.7 17-20z"/><path d="M261.83 12.27c.3 1.1-1 2.2-1.6 3-5.5 6.9-11.6 15-18.9 20.3.5 2.7.3 6.4-.7 8.4 1.9 2.4 3.9 4.8 5.1 7.9-1.6 8.3-5.2 14.7-10.9 18.9s-13.3 5.7-21.9 7.7c-16.7 3.9-44.2 7.7-56.6-2.3-13.4 7.9-40.6 8.9-53.1-.5-9 11.2-44.2 10.2-38.9-12.2-6.5 4.9-16.2 11.8-25.4 15.6-10.7 4.5-30.9 4-28.9-11.2.2-1.8 1-2.8 1.9-4.4a107.23 107.23 0 0 1-7-14c-1.8-4.5-4.6-9.7-4.9-16.1-.7-13.4 9.8-22 20.2-26 5.3-2.1 9.6-5 14.9-6.5 7.9-2.2 14.6 2.1 15.1 9.3 9.1-2.7 20.3-5.7 32.4-4 9.6-7.5 28.4-2.9 40.8.7 2.8.8 6.6 2.9 8.6 2.8 1.8-.1 4.9-2.4 6.8-3.3 8.7-3.8 20-7.9 32.4-5.8 2.3.4 4.5 1.6 7 1.9 1.7.2 3.8-.4 5.6-.5 28.9-1.4 53 6.4 78 10.3zm-81.1-1c-3 .4-5.1 3.6-7 4.7.1 0 .3 0 .2-.2a32.27 32.27 0 0 0 1.2-4.7c-15.5-5.5-30.6 2.5-41.7 8.6-8.9 4.9-16.8 10.6-22.4 16.3a106.79 106.79 0 0 1 6.5-10c2.4-3.3 5.1-6.2 7.2-9.1-4.6-1.2-9.3-2.5-14-3.5-6.7-1.4-15.9-3.8-21.4-.7-1.6.9-2.9 3.1-4.4 3.3-1.3.2-3.3-.8-4.9-.9a53.61 53.61 0 0 0-16.1.9c-4.8 1-15 2.7-16.3 7.2-.8 2.9 1 5.7.7 8.6s-3 6.6-4.4 8.9c-1.7 2.8-3.4 5.2-6.3 6.5-1.7-8.7.2-16.4 1.6-23.8.9-4.5 2.8-9.2 1.2-13.7-4.4-.6-8.2 2.9-12.6 4.7-8.3 3.3-17.5 6.3-18.6 15.8-.7 5.4 1.4 8.8 2.8 12.6a96.51 96.51 0 0 0 11.5 21.4c-1.2 2.3-4.1 2.9-4.4 6.1 1.3 1.9 4.1 2.1 6.8 2.1 7.8 0 14.2-4 20-7.2 12.6-7.1 21.1-18.1 30.1-28.4 1.6-1.8 2.9-4 4.9-5.1 2 9.2-1.9 14.1-4.7 21.7-1.1 2.9-4.4 12-2.8 16.3 1.8 4.7 17.1 4.9 21.2 1.9 2-1.5 2.9-5 4-7.2 1.4-2.8 2.6-5.2 3.7-7.7.1 10.2 7.6 13.2 15.8 15.4 17.4 4.6 35-3.6 44.5-9.3-1.2 7.6 1.8 8.3 7.7 9.6 15.4 3.2 30.8-.5 43.3-3.5 11.4-3 20.6-5 22.3-16.3-1.8-1.6-6.4-1.4-9.6-.9-9.2 1.4-18.2 6-30.5 5.1-2.2-.2-7.1-1-7.5-2.3-.5-2.1 3.3-3.7 6.5-4.2 9.3-1.6 22.6 0 30.1-2.8 3.6-1.4 7.9-5.2 7.5-9.6-.3-2.9-4.1-4.4-7.7-4.7-10.2-.6-17.5 5.3-28.2 3.3 1.3-1.7 1.6-4.5 3.3-5.8 7.8-.2 15.4 1.4 22.8.9 10.3-.6 16.1-5 21-10.7.5-.6 1.8-1.3 1.4-2.3-17.9-2.8-42.2-10-64.3-7.3z"/></svg>