<svg xmlns="http://www.w3.org/2000/svg" viewBox="0 0 495.67 156.64"><path d="M326.64,39.32c4,4.78,13.23,4.41,18.37,8.08-7.35,1.84-16.53,1.84-22.78,4.41C323.7,47.4,325.16,43.36,326.64,39.32Z" fill="#0e0e0e" /><path d="M275.2,55.49C273,65.4,268.59,76.79,266,87.82c14,0.36,28.65-2.57,43.35-3.67,1.84-2.57,2.94-6.25,4-9.55,2.94,4,4.77,11.76,2.21,17.63-22-.36-37.47,17.64-59.15,17.64-9.55,0-17.63-5.51-13.22-16.17C249.49,78.26,265.65,67.61,275.2,55.49Z"/><path d="M495.63,23.16c0.37,2.2-1.84,4-2.94,5.88-10.29,13.23-22,28.29-35.64,38.21,1.1,5.14.37,12.12-1.47,15.8,3.67,4.78,7.35,9.18,9.55,15.06-2.94,15.79-9.92,27.92-20.57,35.63s-25,10.65-41.51,14.69c-31.59,7.35-83.76,14.32-107.27-4.41-25.35,15.06-76.78,16.9-100.66-.73-16.9,21.31-83.39,19.47-73.47-22.78-12.49,9.18-30.49,22.41-48.12,29.39-20.21,8.45-58.41,7.35-54.74-21.31,0.37-3.31,1.84-5.51,3.67-8.45A221.3,221.3,0,0,1,9.23,93.69C5.92,85.24.41,75.32,0,63.2-1.06,37.48,18.78,21.32,38.25,14c9.92-4,18.37-9.55,28.29-12.49,15.06-4.41,27.55,4,28.66,17.63,17.27-5.15,38.57-10.65,61.35-7.35,18.37-14.33,53.64-5.51,77.15,1.47,5.14,1.47,12.49,5.51,16.17,5.14,3.31,0,9.19-4.77,12.86-6.25,16.53-7.35,37.84-15.06,61.35-11,4.41,0.74,8.45,2.94,13.23,3.67,3.31,0.37,7-.73,10.65-0.73C403,1.11,448.6,15.81,495.63,23.16ZM342.43,21.69c-5.51.74-9.55,6.61-13.22,8.82,0.36,0,.36,0,0.36-0.37,0.73-2.94,1.84-5.51,2.2-8.82-29.39-10.28-58,4.78-79,16.17-16.9,9.18-32,20.2-42.24,30.86A154.92,154.92,0,0,1,223,49.24C227.45,43,232.59,37.49,236.63,32c-8.82-2.2-17.63-4.78-26.45-6.61-12.49-2.57-30.12-7-40.41-1.47-2.94,1.84-5.51,5.88-8.45,6.25-2.2.37-6.25-1.47-9.18-1.84a93.6,93.6,0,0,0-30.49,1.84C112.46,32,93.36,35.28,90.78,43.73c-1.47,5.51,1.84,11,1.47,16.16-0.73,5.51-5.88,12.49-8.45,16.9C80.5,81.94,77.19,86.71,72,89.28c-3.31-16.53.37-30.86,2.94-44.82,1.84-8.45,5.14-17.27,2.2-26.08-8.45-1.1-15.43,5.51-23.88,8.82C37.52,33.44,20.25,39.32,18,57.32c-1.1,10.29,2.57,16.53,5.14,23.88a175.68,175.68,0,0,0,21.67,40.41c-2.21,4.41-7.72,5.51-8.45,11.39,2.57,3.67,7.71,4,12.86,4,14.69,0,26.82-7.35,37.84-13.6,23.88-13.59,40-34.16,56.94-53.63,2.94-3.31,5.51-7.72,9.18-9.55,3.67,17.27-3.67,26.82-8.82,41.15-1.84,5.51-8.45,22.78-5.14,30.86,3.31,8.82,32.33,9.19,40,3.67,4-2.94,5.51-9.55,7.35-13.6,2.57-5.14,5.14-9.92,7-14.69,0,19.47,14.33,25,30.13,29,33.06,8.81,66.12-7,84.12-17.63-2.2,14.32,3.31,15.79,14.69,18,29,5.88,58.41-.74,81.93-6.61,21.67-5.14,38.94-8.82,42.25-30.49-3.31-2.94-12.12-2.57-18-1.84-17.63,2.57-34.53,11.39-57.68,9.55-4.41-.36-13.59-1.84-14-4.41-1.1-4,6.25-7,12.49-8.08,17.63-2.94,42.61,0,56.94-5.15,6.61-2.57,15.06-9.92,14-18-0.73-5.51-7.72-8.45-14.69-8.82-19.47-1.1-33.06,9.92-53.27,6.24,2.57-3.31,2.94-8.45,6.25-11,14.69-.37,29,2.57,43.35,1.84,19.47-1.1,30.49-9.55,39.68-20.21,1.1-1.1,3.31-2.57,2.57-4.41C430.23,30.14,383.94,16.54,342.43,21.69Z" fill="#0e0e0e" /></svg>